<svg width="20" height="20" xmlns="http://www.w3.org/2000/svg" xmlns:xlink="http://www.w3.org/1999/xlink" xml:space="preserve" overflow="hidden"><g><path d="M17.0833 17.4167 12.9167 13.4583 17.0833 9.5 17.0833 17.4167ZM3.58333 17.9167 7.70833 14.0208 8 13.75C9.125 12.6875 10.8958 12.6875 12.0208 13.75L12.3125 14.0208 16.4167 17.9167 3.58333 17.9167ZM2.91667 9.47917 7.08333 13.4375 2.91667 17.3958 2.91667 9.47917ZM5.83333 4.16667 14.1667 4.16667 14.1667 11.1042 12.2917 12.8958C10.9375 11.8542 9.0625 11.8542 7.70833 12.8958L5.83333 11.1042 5.83333 4.16667ZM15.4167 4.72917 15.4167 2.91667 12.5 2.91667 10 0.833333 7.5 2.91667 4.58333 2.91667 4.58333 4.75 1.66667 7.52083 1.66667 19.1667 18.3333 19.1667 18.3333 7.52083 15.4167 4.72917Z" stroke="#E9274C" stroke-width="0.208333" fill="#E9274C"/><path d="M10 8.8125C9.625 8.8125 9.33333 8.5 9.33333 8.14583 9.33333 7.77083 9.64583 7.47917 10 7.47917 10.375 7.47917 10.6667 7.77083 10.6667 8.14583 10.6667 8.52083 10.375 8.8125 10 8.8125ZM10 10.8333C10.4792 10.8333 10.9375 10.7083 11.3542 10.5 11.5208 10.3958 11.5833 10.1875 11.5 10.0208 11.3958 9.85417 11.1875 9.79167 11.0208 9.875 10.7083 10.0417 10.3542 10.125 10 10.125 8.89583 10.125 7.97917 9.20833 8 8.10417 8 7 8.91667 6.08333 10.0208 6.08333 11.125 6.08333 12.0417 6.97917 12.0417 8.10417L12.0417 8.77083C11.6667 8.77083 11.375 8.47917 11.375 8.10417 11.375 7.4375 10.9167 6.875 10.2708 6.75 9.625 6.625 8.97917 6.97917 8.75 7.58333 8.52083 8.1875 8.75 8.89583 9.3125 9.22917 9.875 9.5625 10.6042 9.45833 11.0417 8.95833 11.2917 9.25 11.6667 9.41667 12.0625 9.41667 12.4375 9.41667 12.7292 9.125 12.7292 8.75L12.7292 8.08333C12.7292 6.58333 11.5208 5.375 10.0208 5.375 8.52083 5.375 7.3125 6.58333 7.3125 8.08333 7.29167 9.60417 8.5 10.8125 10 10.8333Z" stroke="#E9274C" stroke-width="0.208333" fill="#E9274C"/></g></svg>