<svg width="128" height="17" xmlns="http://www.w3.org/2000/svg" xmlns:xlink="http://www.w3.org/1999/xlink" xml:space="preserve" overflow="hidden"><defs><clipPath id="clip0"><rect x="0" y="0" width="128" height="17"/></clipPath></defs><g clip-path="url(#clip0)"><path d="M63.6621 25.5586 63.6621 41.8552 73.5103 41.8552 73.5103 38.1032 67.5435 38.1032 67.5435 35.526 72.4288 35.526 72.4288 31.7606 67.5435 31.7606 67.5435 29.3207 73.5103 29.3207 73.5103 25.5586 63.6621 25.5586Z" fill="#101820" fill-rule="evenodd" transform="matrix(1.04276 0 0 1 -31.9083 -25.2069)"/><path d="M56.2462 42.2069C54.9806 42.2069 53.7983 41.8831 52.8332 41.2724 51.858 40.6145 51.14 39.6665 50.6357 38.3811 50.1215 37.1497 49.8276 35.5203 49.8276 33.9144 49.8276 32.052 50.1215 30.345 50.6792 28.9821 51.2836 27.7067 52.0818 26.7048 52.9801 26.0807 53.9385 25.5172 54.9371 25.2069 55.792 25.2069 57.8125 25.271 59.4122 25.9626 60.2938 27.1569 61.2021 28.5131 61.7098 30.0717 61.8033 31.7889L58.1765 31.7889C58.0328 30.8206 57.739 30.0582 57.3683 29.7006 56.8941 29.3465 56.3932 29.144 55.9891 29.144 55.231 29.144 54.6131 29.623 54.2993 30.4564 53.9219 31.3605 53.7449 32.4604 53.7449 33.9144 53.7449 36.8596 54.5163 38.3508 56.0426 38.3508 57.2147 38.3508 57.9728 37.3387 58.1765 35.5034L61.9035 35.5034C61.7432 37.5478 61.1887 39.1975 60.2504 40.402 59.2752 41.5828 57.8893 42.2069 56.2462 42.2069" fill="#101820" fill-rule="evenodd" transform="matrix(1.04276 0 0 1 -31.9083 -25.2069)"/><path d="M44.4345 25.5586 48.1862 25.5586 48.1862 41.8552 44.4345 41.8552Z" fill="#101820" fill-rule="evenodd" transform="matrix(1.04276 0 0 1 -31.9083 -25.2069)"/><path d="M38.3477 25.5586 38.3477 34.6584 34.0986 25.5586 30.6 25.5586 30.6 41.8552 34.2541 41.8552 34.2372 36.8497 34.2541 32.9029 38.3882 41.8552 42.0897 41.8552 42.0897 25.5586 38.3477 25.5586Z" fill="#101820" fill-rule="evenodd" transform="matrix(1.04276 0 0 1 -31.9083 -25.2069)"/><path d="M61.9035 31.8897 65.5379 31.8897 65.5379 35.4069 61.9035 35.4069Z" fill="#23C9FF" fill-rule="evenodd" transform="matrix(1.04276 0 0 1 -31.9083 -25.2069)"/><path d="M48.3035 31.8897 51.8207 31.8897 51.8207 35.4069 48.3035 35.4069Z" fill="#23C9FF" fill-rule="evenodd" transform="matrix(1.04276 0 0 1 -31.9083 -25.2069)"/><path d="M40.8 31.8897 44.3172 31.8897 44.3172 35.4069 40.8 35.4069Z" fill="#23C9FF" fill-rule="evenodd" transform="matrix(1.04276 0 0 1 -31.9083 -25.2069)"/><path d="M84.7298 35.7551 81.1408 35.7551 82.9136 28.7984 84.7332 35.7551ZM89.4552 41.9724 84.943 25.5586 81.1408 25.5586 76.5586 41.9724 79.7012 41.9724 80.5976 38.3764 85.2496 38.3764 86.1694 41.9724 89.4519 41.9724Z" fill="#23C9FF" fill-rule="evenodd" transform="matrix(1.04276 0 0 1 -31.9083 -25.2069)"/><path d="M101.635 32.6456 101.635 38.5398C101.635 40.9308 102.875 42.0897 105.113 42.0897 105.852 42.0897 106.565 41.8993 106.924 41.6889L106.924 39.4882C106.639 39.5816 106.259 39.6318 105.946 39.6318 104.851 39.6318 104.374 39.1809 104.374 37.8551L104.374 32.6489 106.874 32.6489 106.874 30.3047 104.35 30.3047 104.35 26.8483 101.682 26.8483 101.682 30.3047 99.4207 30.3047 99.4207 32.6489 101.635 32.6489Z" fill="#23C9FF" fill-rule="evenodd" transform="matrix(1.04276 0 0 1 -31.9083 -25.2069)"/><path d="M108.448 25.4414 111.262 25.4414 111.262 28.4897 108.448 28.4897Z" fill="#23C9FF" fill-rule="evenodd" transform="matrix(1.04276 0 0 1 -31.9083 -25.2069)"/><path d="M108.331 30.2483 111.379 30.2483 111.379 41.9724 108.331 41.9724Z" fill="#23C9FF" fill-rule="evenodd" transform="matrix(1.04276 0 0 1 -31.9083 -25.2069)"/><path d="M116.369 41.9724 116.369 35.4667C116.369 33.6986 117.029 32.693 118.12 32.693 119.041 32.693 119.325 33.3881 119.325 34.7243L119.325 41.9724 122.187 41.9724 122.187 35.4667C122.187 33.6986 122.874 32.693 123.962 32.693 124.859 32.693 125.166 33.3881 125.166 34.7243L125.166 41.9724 128.028 41.9724 128.028 33.9111C128.028 31.5424 127.154 30.0138 125.166 30.0138 123.51 30.0138 122.516 31.1847 122.093 32.6222 121.786 30.9957 120.885 30.0138 119.304 30.0138 117.723 30.0138 116.702 31.2084 116.255 32.6694L116.255 30.2534 113.49 30.2534 113.49 41.9724 116.375 41.9724Z" fill="#23C9FF" fill-rule="evenodd" transform="matrix(1.04276 0 0 1 -31.9083 -25.2069)"/><path d="M130.255 25.4414 133.069 25.4414 133.069 28.4897 130.255 28.4897Z" fill="#23C9FF" fill-rule="evenodd" transform="matrix(1.04276 0 0 1 -31.9083 -25.2069)"/><path d="M130.138 30.2483 133.069 30.2483 133.069 41.9724 130.138 41.9724Z" fill="#23C9FF" fill-rule="evenodd" transform="matrix(1.04276 0 0 1 -31.9083 -25.2069)"/><path d="M142.914 32.4492 142.914 30.2483 134.858 30.2483 134.858 32.6147 139.776 32.6147 134.476 39.7478 134.476 41.9724 143.269 41.9724 143.269 39.5554 137.707 39.5554 142.914 32.4492Z" fill="#23C9FF" fill-rule="evenodd" transform="matrix(1.04276 0 0 1 -31.9083 -25.2069)"/><path d="M94.559 39.7373C93.3287 39.7373 92.8818 38.3962 92.8818 36.241 92.8818 33.393 93.4721 32.3863 94.5824 32.3863 95.4194 32.3863 95.7929 33.0417 95.9329 34.0382L98.6473 34.0382C98.4805 31.6668 97.2534 29.8966 94.6525 29.8966 91.8648 29.8966 89.9241 32.0755 89.9241 36.0754 89.9241 39.7644 91.6014 42.2069 94.4158 42.2069 97.23 42.2069 98.5272 40.4604 98.7172 37.9942L96.073 37.9942C95.8996 39.153 95.4128 39.7408 94.559 39.7408" fill="#24C9FF" fill-rule="evenodd" transform="matrix(1.04276 0 0 1 -31.9083 -25.2069)"/><path d="M148.824 32.1742C149.838 32.1742 150.45 33.0595 150.45 34.7862L147.031 34.7862C147.148 33.0629 147.69 32.1742 148.824 32.1742M148.967 39.8854C147.507 39.8854 146.989 38.4729 146.989 36.7461L146.989 36.7225 153.328 36.7225 153.328 35.9555C153.328 32.1944 151.772 29.8966 148.851 29.8966 146.094 29.8966 144.09 31.9071 144.09 36.1244 144.09 39.9563 145.975 42.2069 148.827 42.2069 151.421 42.2069 152.95 40.5308 153.352 38.3749L150.686 38.3749C150.443 39.2705 149.967 39.8854 148.967 39.8854" fill="#24C9FF" fill-rule="evenodd" transform="matrix(1.04276 0 0 1 -31.9083 -25.2069)"/></g></svg>