<svg width="20" height="20" xmlns="http://www.w3.org/2000/svg" xmlns:xlink="http://www.w3.org/1999/xlink" xml:space="preserve" overflow="hidden"><g><path d="M8.16667 6.08333C8.33333 5.91667 8.4375 5.6875 8.4375 5.4375 8.4375 5.1875 8.33333 4.95833 8.16667 4.79167L5.29167 1.9375C5.125 1.77083 4.89583 1.66667 4.66667 1.66667 4.4375 1.66667 4.1875 1.77083 4.02083 1.9375L3.70833 2.25 7.85417 6.39583 8.16667 6.08333Z" stroke="#E9274C" stroke-width="0.208333" fill="#E9274C"/><path d="M12.3542 13.4375C12.2708 13.5208 12.1458 13.5625 12.0417 13.5625 11.9375 13.5625 11.8125 13.5208 11.7292 13.4375L6.5625 8.29167C6.47917 8.20833 6.4375 8.08333 6.4375 7.97917 6.4375 7.875 6.47917 7.75 6.5625 7.66667L7.20833 7.04167 3.0625 2.89583C2.79167 3.16667 2.54167 3.41667 2.375 3.58333 1.95833 3.97917 1.70833 4.5 1.6875 5.0625 1.625 6 1.85417 6.89583 2.16667 7.77083 2.5 8.54167 2.9375 9.27083 3.41667 9.95833 5.125 12.5208 7.27083 14.75 9.77083 16.5208 10.1875 16.8333 10.625 17.1042 11.0833 17.3542 12.125 17.875 13.2292 18.25 14.4167 18.3333 15.2083 18.3958 16 18.0833 16.5417 17.5L17.1042 16.9375 12.9792 12.7917 12.3542 13.4375Z" stroke="#E9274C" stroke-width="0.208333" fill="#E9274C"/><path d="M18.0625 14.7083 15.1875 11.8333C15.0208 11.6667 14.7917 11.5625 14.5417 11.5625 14.2917 11.5625 14.0625 11.6667 13.8958 11.8333L13.5833 12.1667 17.7292 16.3125 18.0417 16C18.2083 15.8333 18.3125 15.6042 18.3125 15.3542 18.3125 15.1042 18.2292 14.875 18.0625 14.7083Z" stroke="#E9274C" stroke-width="0.208333" fill="#E9274C"/></g></svg>