<svg width="20" height="20" xmlns="http://www.w3.org/2000/svg" xmlns:xlink="http://www.w3.org/1999/xlink" xml:space="preserve" overflow="hidden"><g><path d="M5.625 6.66667C5.625 6.89678 5.43845 7.08333 5.20833 7.08333 4.97821 7.08333 4.79167 6.89678 4.79167 6.66667 4.79167 6.43655 4.97821 6.25 5.20833 6.25 5.43845 6.25 5.625 6.43655 5.625 6.66667Z" stroke="#E9274C" stroke-width="0.208333" fill="#E9274C"/><path d="M5.625 8.33333C5.625 8.56345 5.43845 8.75 5.20833 8.75 4.97821 8.75 4.79167 8.56345 4.79167 8.33333 4.79167 8.10321 4.97821 7.91667 5.20833 7.91667 5.43845 7.91667 5.625 8.10321 5.625 8.33333Z" stroke="#E9274C" stroke-width="0.208333" fill="#E9274C"/><path d="M4.79167 7.5C4.79167 7.73012 4.60512 7.91667 4.375 7.91667 4.14488 7.91667 3.95833 7.73012 3.95833 7.5 3.95833 7.26988 4.14488 7.08333 4.375 7.08333 4.60512 7.08333 4.79167 7.26988 4.79167 7.5Z" stroke="#E9274C" stroke-width="0.208333" fill="#E9274C"/><path d="M6.45833 7.5C6.45833 7.73012 6.27179 7.91667 6.04167 7.91667 5.81155 7.91667 5.625 7.73012 5.625 7.5 5.625 7.26988 5.81155 7.08333 6.04167 7.08333 6.27179 7.08333 6.45833 7.26988 6.45833 7.5Z" stroke="#E9274C" stroke-width="0.208333" fill="#E9274C"/><path d="M11.4583 5.83333C11.4583 6.06345 11.2718 6.25 11.0417 6.25 10.8115 6.25 10.625 6.06345 10.625 5.83333 10.625 5.60321 10.8115 5.41667 11.0417 5.41667 11.2718 5.41667 11.4583 5.60321 11.4583 5.83333Z" stroke="#E9274C" stroke-width="0.208333" fill="#E9274C"/><path d="M11.4583 7.5C11.4583 7.73012 11.2718 7.91667 11.0417 7.91667 10.8115 7.91667 10.625 7.73012 10.625 7.5 10.625 7.26988 10.8115 7.08333 11.0417 7.08333 11.2718 7.08333 11.4583 7.26988 11.4583 7.5Z" stroke="#E9274C" stroke-width="0.208333" fill="#E9274C"/><path d="M10.625 6.66667C10.625 6.89678 10.4385 7.08333 10.2083 7.08333 9.97821 7.08333 9.79167 6.89678 9.79167 6.66667 9.79167 6.43655 9.97821 6.25 10.2083 6.25 10.4385 6.25 10.625 6.43655 10.625 6.66667Z" stroke="#E9274C" stroke-width="0.208333" fill="#E9274C"/><path d="M12.2917 6.66667C12.2917 6.89678 12.1051 7.08333 11.875 7.08333 11.6449 7.08333 11.4583 6.89678 11.4583 6.66667 11.4583 6.43655 11.6449 6.25 11.875 6.25 12.1051 6.25 12.2917 6.43655 12.2917 6.66667Z" stroke="#E9274C" stroke-width="0.208333" fill="#E9274C"/><path d="M17.0833 9.375 15.8333 10.625 14.1667 10.625 14.1667 15.2083 15.8333 15.2083 17.0833 16.4583 18.3333 16.4583 18.3333 9.375Z" stroke="#E9274C" stroke-width="0.208333" fill="#E9274C"/><path d="M11.0417 8.54167C10 8.54167 9.16667 7.70833 9.16667 6.66667 9.16667 5.625 10 4.79167 11.0417 4.79167 12.0833 4.79167 12.9167 5.625 12.9167 6.66667 12.9167 7.70833 12.0833 8.54167 11.0417 8.54167ZM11.6667 15.2083C11.4375 15.2083 11.25 15.0208 11.25 14.7917 11.25 14.5625 11.4375 14.375 11.6667 14.375 11.8958 14.375 12.0833 14.5625 12.0833 14.7917 12.0833 15.0208 11.8958 15.2083 11.6667 15.2083ZM7.70833 9.375C7.97917 9 8.1875 8.58333 8.27083 8.10417 8.54167 8.625 8.97917 9.0625 9.47917 9.375L7.70833 9.375ZM5.20833 9.375C4.16667 9.375 3.33333 8.54167 3.33333 7.5 3.33333 6.45833 4.16667 5.625 5.20833 5.625 6.25 5.625 7.08333 6.45833 7.08333 7.5 7.08333 8.54167 6.25 9.375 5.20833 9.375ZM12.5833 9.375C13.5208 8.83333 14.1667 7.83333 14.1667 6.66667 14.1667 4.9375 12.7708 3.54167 11.0417 3.54167 9.52083 3.54167 8.27083 4.625 7.97917 6.0625 7.45833 5.0625 6.41667 4.375 5.20833 4.375 3.47917 4.375 2.08333 5.77083 2.08333 7.5 2.08333 8.52083 2.58333 9.41667 3.33333 10L3.33333 10.625 2.91667 10.625 2.5 10.2083 1.66667 10.2083 1.66667 12.2917 2.5 12.2917 2.91667 11.875 3.33333 11.875 3.33333 15.625C3.33333 16.0833 3.70833 16.4583 4.16667 16.4583L12.5 16.4583C12.9583 16.4583 13.3333 16.0833 13.3333 15.625L13.3333 10.2083C13.3333 9.77083 13 9.41667 12.5833 9.375Z" stroke="#E9274C" stroke-width="0.208333" fill="#E9274C"/></g></svg>